<?xml version="1.0" encoding="utf-8"?>
<!-- Generator: Adobe Illustrator 26.0.2, SVG Export Plug-In . SVG Version: 6.00 Build 0)  -->
<svg version="1.1" id="Layer_1" xmlns="http://www.w3.org/2000/svg" xmlns:xlink="http://www.w3.org/1999/xlink" x="0px" y="0px"
	 width="500px" height="329.2px" viewBox="0 0 500 329.2" style="enable-background:new 0 0 500 329.2;" xml:space="preserve">
<style type="text/css">
	.st0{fill:#857628;stroke:#FFFFFF;stroke-width:3;stroke-miterlimit:10;}
	.st1{fill:#FFFFFF;stroke:#FFFFFF;stroke-width:3;stroke-miterlimit:10;}
	.st2{fill:#C20E1A;stroke:#FFFFFF;stroke-width:3;stroke-miterlimit:10;}
	.st3{fill:#F1CB31;stroke:#FFFFFF;stroke-width:3;stroke-miterlimit:10;}
	.st4{fill-rule:evenodd;clip-rule:evenodd;fill:#C20E1A;stroke:#FFFFFF;stroke-width:3;stroke-miterlimit:10;}
	.st5{fill:#1E1E1D;stroke:#FFFFFF;stroke-width:3;stroke-miterlimit:10;}
	.st6{fill-rule:evenodd;clip-rule:evenodd;fill:#1E1E1D;stroke:#FFFFFF;stroke-width:3;stroke-miterlimit:10;}
	.st7{fill:#3D69AE;stroke:#FFFFFF;stroke-width:3;stroke-miterlimit:10;}
	.st8{fill:#C62945;stroke:#FFFFFF;stroke-width:3;stroke-miterlimit:10;}
	.st9{fill:#E8B335;stroke:#FFFFFF;stroke-width:3;stroke-miterlimit:10;}
	.st10{fill:#518F4E;stroke:#FFFFFF;stroke-width:3;stroke-miterlimit:10;}
	.st11{fill:#857628;}
	.st12{fill:#FFFFFF;}
	.st13{fill:#C20E1A;}
	.st14{fill:#F1CB31;}
	.st15{fill-rule:evenodd;clip-rule:evenodd;fill:#C20E1A;}
	.st16{fill:#1E1E1D;}
	.st17{fill-rule:evenodd;clip-rule:evenodd;fill:#1E1E1D;}
	.st18{fill:#3D69AE;}
	.st19{fill:#C62945;}
	.st20{fill:#E8B335;}
	.st21{fill:#518F4E;}
</style>
<g id="layer1_00000069380380192782539790000016836837358335754681_" transform="translate(-284.1658,-382.36218)">
	<g id="g8920_00000057129658331183453900000011367258389148348571_" transform="translate(284.1658,382.36218)">
		<path id="path7577_00000029008749428245859970000015662482415860813495_" class="st0" d="M175.4,106.2l152,0.2
			c0,0-0.3,144.3-0.4,169.6c-0.1,14.7-10.9,25.7-25.7,25.6c-12.2,0-40.5,0-45.3,0c-2.6-0.1-4.2,4.8-4.2,4.8c0,0-1.3-4.8-4.2-4.8
			c-4.8,0-31.2,0-46.9-0.1c-14.5,0-25.6-12.5-25.6-25.7C175.1,262.3,175.4,106.2,175.4,106.2"/>
		<path id="path7579_00000052796454743065348950000010805901389117801905_" class="st1" d="M181.5,112.6l139.8,0.2l-0.1,30.2
			l-139.7-0.2"/>
		<path id="path7581_00000059302243880153407500000005616343223829504658_" class="st2" d="M181.4,149.6l139.8,0.2l-0.1,36
			l-139.7-0.3"/>
		<path id="path7583_00000052819471835162471160000016633348403639047583_" class="st3" d="M181.2,252.6h139.9V192H181.2
			C181.2,192,181.2,252.6,181.2,252.6z"/>
		<path id="path7585_00000054248967682849503470000010973766523859629247_" class="st4" d="M181.2,276.3c0-10,0-18.2,0-18.2
			l139.6,0.3c0,0,0.1,8.1,0.1,18.2c0,10-8.2,18.1-18.2,18.1l-103.4-0.2C189.3,294.5,181.2,286.4,181.2,276.3"/>
		<path id="path7587_00000079484328260194072420000000391974253864382138_" class="st5" d="M192.4,138.6l0-19.8l14.4,0.1l0,2.3
			l-11.7,0l0,6.1l10.9,0l0,2.3l-11,0l0,6.8l12.1,0l0,2.4"/>
		<path id="path7589_00000052106154309393810460000002067756935268244918_" class="st5" d="M211.6,132.3l2.5-0.2
			c0.1,1,0.4,1.8,0.8,2.4c0.4,0.6,1.1,1.2,2,1.6c0.9,0.4,1.9,0.6,3,0.5c1,0,1.9-0.1,2.7-0.4c0.7-0.3,1.3-0.8,1.7-1.3
			c0.4-0.5,0.5-1.1,0.6-1.6c0-0.7-0.1-1.2-0.5-1.7c-0.4-0.4-1-0.8-1.8-1.2c-0.5-0.2-1.7-0.4-3.5-0.9c-1.9-0.5-3.1-0.8-3.9-1.2
			c-1-0.5-1.6-1.2-2.1-1.9c-0.4-0.7-0.7-1.6-0.6-2.5c0-0.9,0.2-1.9,0.8-2.8c0.6-0.9,1.4-1.5,2.5-2c1.1-0.5,2.4-0.7,3.7-0.7
			c1.5-0.1,2.8,0.2,3.9,0.7c1.1,0.5,2,1.2,2.6,2c0.7,1,1,2,1,3.2l-2.5,0.2c-0.2-1.2-0.7-2.2-1.4-2.9c-0.8-0.6-1.9-0.9-3.5-0.9
			c-1.5,0-2.7,0.3-3.4,0.9c-0.8,0.6-1.1,1.3-1.1,2.1c0,0.7,0.3,1.3,0.7,1.8c0.5,0.5,1.8,0.9,4,1.4c2.2,0.5,3.6,0.9,4.4,1.3
			c1.1,0.6,2,1.2,2.6,2c0.5,0.8,0.8,1.7,0.9,2.8c0,1.1-0.4,2.1-1,3c-0.6,1-1.4,1.7-2.6,2.2c-1,0.6-2.3,0.8-3.7,0.8
			c-1.9,0-3.3-0.3-4.5-0.8c-1.3-0.6-2.2-1.3-2.9-2.4C212,134.8,211.6,133.6,211.6,132.3"/>
		<path id="path7591_00000062912935492545133980000010222484150626800809_" class="st6" d="M235.2,128.3l5.1,0
			c1.6,0,2.9-0.3,3.6-0.9c0.7-0.6,1.1-1.5,1.1-2.7c0-0.8-0.2-1.6-0.6-2.1c-0.4-0.6-1.1-1-1.6-1.2c-0.5-0.1-1.3-0.2-2.5-0.2l-5.1,0
			L235.2,128.3L235.2,128.3z M232.6,138.6l0-19.8l7.5,0c1.3,0,2.3,0,3,0.2c0.9,0.1,1.8,0.5,2.4,0.9c0.7,0.5,1.2,1.1,1.6,1.9
			c0.5,0.8,0.7,1.8,0.6,2.7c0,1.7-0.6,3.1-1.6,4.3c-1.1,1.1-3,1.7-5.8,1.7l-5.1,0l0,8.1"/>
		<path id="path7593_00000025412792012426212310000017286199867710946232_" class="st6" d="M256.2,130.6l6.8,0l-2-5.5
			c-0.7-1.6-1.1-3-1.4-4.1c-0.3,1.3-0.7,2.5-1.1,3.8L256.2,130.6L256.2,130.6z M250.5,138.7l7.7-19.8l2.8,0l8.1,19.8l-3-0.1l-2.3-6
			h-8.3l-2.2,6"/>
		<path id="path7595_00000073686727337243159900000010804547995111524533_" class="st6" d="M276.5,117.7c0-1,0.3-1.7,0.8-2.3
			c0.5-0.6,1.2-0.8,2-0.8c0.6,0,1.4,0.2,2.3,0.7c0.5,0.2,0.9,0.4,1.2,0.4c0.3,0,0.6,0,0.7-0.2c0.1-0.2,0.3-0.5,0.3-1l1.8,0
			c0,1.1-0.3,1.8-0.8,2.3c-0.5,0.5-1.1,0.7-1.9,0.8c-0.5,0-1.3-0.3-2.2-0.7c-0.6-0.4-1-0.5-1.4-0.5c-0.3-0.1-0.5,0.1-0.7,0.3
			c-0.2,0.3-0.3,0.6-0.3,1L276.5,117.7L276.5,117.7z M272.7,138.8l0-19.8l2.7,0l10.4,15.5l0.1-15.6l2.5,0l0,19.8l-2.7,0l-10.4-15.6
			l-0.1,15.6"/>
		<path id="path7597_00000051356448048612395500000010068329813268626835_" class="st6" d="M298,130.6l6.7,0l-2-5.5
			c-0.7-1.7-1.2-3.1-1.5-4.1c-0.2,1.2-0.5,2.5-1,3.8L298,130.6L298,130.6z M292.2,138.8l7.6-19.8l2.8,0l8.1,19.9l-3.1-0.1l-2.2-6
			l-8.3-0.1l-2.2,6.1"/>
		<path id="path7599_00000071540573326502581200000006695002931227897476_" class="st7" d="M192.5,74.3c-0.4,0-0.8,0-1.3,0
			c-15.2,0.1-27.5-12.2-27.6-27.4c-0.1-15.2,12.2-27.5,27.4-27.6c15.2-0.1,27.5,12.2,27.6,27.4c0,12.3-8,22.7-19,26.2
			c0-0.4-0.1-3.9,0.4-5c8.3-3.5,14.2-11.7,14.1-21.3c0-12.7-10.4-22.9-23-22.8c-12.7,0-22.9,10.3-22.8,23c0,12.7,10.3,22.9,23,22.8
			c0.4,0,0.8,0,1.2-0.1C192.3,71.2,192.2,73.4,192.5,74.3"/>
		<path id="path7601_00000044898077042965925720000007526581210135699130_" class="st5" d="M252,69.6c-0.4,0-0.8,0.1-1.2,0.1
			c-10.9,0-20.1-7.6-22.4-17.8c-1.6-0.7-4-1.1-4.8-1.1c1.9,13.3,13.4,23.5,27.3,23.5c0.4,0,0.8,0,1.2,0
			C251.8,71.7,252,70.4,252,69.6 M250.6,19.2c-14,0.1-25.6,10.6-27.2,24.2c0.9,0,4,0.6,4.5,0.7c1.2-11.4,10.9-20.4,22.7-20.4
			c12.7,0,23,10.2,23,22.8c0,9.6-5.8,17.8-14.2,21.3c-0.2,1.1-0.4,2.4-0.3,5c11.1-3.6,19.1-14,19-26.2
			C278.1,31.4,265.8,19.2,250.6,19.2"/>
		<path id="path7603_00000151502039159976823150000005290916574293725568_" class="st8" d="M288,51.6c2.3,10.2,11.5,17.9,22.4,17.8
			c12.7,0,22.9-10.3,22.8-23c0-12.7-10.3-22.9-23-22.8c-11.8,0-21.5,9-22.7,20.4c-0.8-0.3-3.5-0.8-4.5-0.8
			c1.6-13.6,13.1-24.2,27.2-24.2c15.2-0.1,27.5,12.2,27.6,27.4c0.1,15.2-12.2,27.5-27.4,27.6c-13.9,0.1-25.4-10.2-27.3-23.5
			C284,50.4,286.3,50.9,288,51.6"/>
		<path id="path7605_00000090990391003441250450000004031916265431334291_" class="st9" d="M243.8,74.5
			c-1.3,11.4-10.9,20.4-22.7,20.4c-12.7,0-22.9-10.2-23-22.8c0-9.6,5.8-17.8,14.2-21.3c0.3-1.9,0.4-3.8,0.4-5
			c-11.1,3.6-19.1,14-19.1,26.3c0.1,15.2,12.4,27.4,27.6,27.3c14-0.1,25.6-10.6,27.2-24.2C247.3,75.2,244.9,74.9,243.8,74.5
			 M220.9,49.1c10.9,0,20.1,7.6,22.4,17.8c1.1,0.5,3.9,1.2,4.8,1.2c-1.9-13.4-13.4-23.6-27.3-23.5c-0.4,0-0.8,0-1.2,0
			c0.1,1,0.2,3.4,0,4.5C220.1,49.1,220.5,49.1,220.9,49.1"/>
		<path id="path7607_00000051386032559458426820000012076302035931745923_" class="st10" d="M279.3,48.9c0.4,0,0.8,0,1.2,0
			c10.9,0,20.1,7.6,22.4,17.8c1,0.4,3.4,1,4.8,1.2c-1.9-13.4-13.4-23.6-27.3-23.5c-0.4,0-0.8,0-1.2,0
			C279.4,45.5,279.4,47.7,279.3,48.9L279.3,48.9L279.3,48.9z M303.4,74.3c-1.3,11.4-10.9,20.4-22.7,20.4c-12.7,0-23-10.2-23-22.8
			c0-9.6,5.9-17.8,14.2-21.3c0.3-0.8,0.5-3.7,0.3-5c-11.1,3.6-19.1,14-19,26.3c0.1,15.2,12.4,27.4,27.6,27.3
			c14-0.1,25.6-10.6,27.1-24.2C306.4,75,304,74.5,303.4,74.3"/>
	</g>
</g>
<g id="layer1" transform="translate(-284.1658,-382.36218)">
	<g id="g8920" transform="translate(284.1658,382.36218)">
		<path id="path7577" class="st11" d="M175.4,106.2l152,0.2c0,0-0.3,144.3-0.4,169.6c-0.1,14.7-10.9,25.7-25.7,25.6
			c-12.2,0-40.5,0-45.3,0c-2.6-0.1-4.2,4.8-4.2,4.8c0,0-1.3-4.8-4.2-4.8c-4.8,0-31.2,0-46.9-0.1c-14.5,0-25.6-12.5-25.6-25.7
			C175.1,262.3,175.4,106.2,175.4,106.2"/>
		<path id="path7579" class="st12" d="M181.5,112.6l139.8,0.2l-0.1,30.2l-139.7-0.2"/>
		<path id="path7581" class="st13" d="M181.4,149.6l139.8,0.2l-0.1,36l-139.7-0.3"/>
		<path id="path7583" class="st14" d="M181.2,252.6h139.9V192H181.2C181.2,192,181.2,252.6,181.2,252.6z"/>
		<path id="path7585" class="st15" d="M181.2,276.3c0-10,0-18.2,0-18.2l139.6,0.3c0,0,0.1,8.1,0.1,18.2c0,10-8.2,18.1-18.2,18.1
			l-103.4-0.2C189.3,294.5,181.2,286.4,181.2,276.3"/>
		<path id="path7587" class="st16" d="M192.4,138.6l0-19.8l14.4,0.1l0,2.3l-11.7,0l0,6.1l10.9,0l0,2.3l-11,0l0,6.8l12.1,0l0,2.4"/>
		<path id="path7589" class="st16" d="M211.6,132.3l2.5-0.2c0.1,1,0.4,1.8,0.8,2.4c0.4,0.6,1.1,1.2,2,1.6c0.9,0.4,1.9,0.6,3,0.5
			c1,0,1.9-0.1,2.7-0.4c0.7-0.3,1.3-0.8,1.7-1.3c0.4-0.5,0.5-1.1,0.6-1.6c0-0.7-0.1-1.2-0.5-1.7c-0.4-0.4-1-0.8-1.8-1.2
			c-0.5-0.2-1.7-0.4-3.5-0.9c-1.9-0.5-3.1-0.8-3.9-1.2c-1-0.5-1.6-1.2-2.1-1.9c-0.4-0.7-0.7-1.6-0.6-2.5c0-0.9,0.2-1.9,0.8-2.8
			c0.6-0.9,1.4-1.5,2.5-2c1.1-0.5,2.4-0.7,3.7-0.7c1.5-0.1,2.8,0.2,3.9,0.7c1.1,0.5,2,1.2,2.6,2c0.7,1,1,2,1,3.2l-2.5,0.2
			c-0.2-1.2-0.7-2.2-1.4-2.9c-0.8-0.6-1.9-0.9-3.5-0.9c-1.5,0-2.7,0.3-3.4,0.9c-0.8,0.6-1.1,1.3-1.1,2.1c0,0.7,0.3,1.3,0.7,1.8
			c0.5,0.5,1.8,0.9,4,1.4c2.2,0.5,3.6,0.9,4.4,1.3c1.1,0.6,2,1.2,2.6,2c0.5,0.8,0.8,1.7,0.9,2.8c0,1.1-0.4,2.1-1,3
			c-0.6,1-1.4,1.7-2.6,2.2c-1,0.6-2.3,0.8-3.7,0.8c-1.9,0-3.3-0.3-4.5-0.8c-1.3-0.6-2.2-1.3-2.9-2.4
			C212,134.8,211.6,133.6,211.6,132.3"/>
		<path id="path7591" class="st17" d="M235.2,128.3l5.1,0c1.6,0,2.9-0.3,3.6-0.9c0.7-0.6,1.1-1.5,1.1-2.7c0-0.8-0.2-1.6-0.6-2.1
			c-0.4-0.6-1.1-1-1.6-1.2c-0.5-0.1-1.3-0.2-2.5-0.2l-5.1,0L235.2,128.3L235.2,128.3z M232.6,138.6l0-19.8l7.5,0c1.3,0,2.3,0,3,0.2
			c0.9,0.1,1.8,0.5,2.4,0.9c0.7,0.5,1.2,1.1,1.6,1.9c0.5,0.8,0.7,1.8,0.6,2.7c0,1.7-0.6,3.1-1.6,4.3c-1.1,1.1-3,1.7-5.8,1.7l-5.1,0
			l0,8.1"/>
		<path id="path7593" class="st17" d="M256.2,130.6l6.8,0l-2-5.5c-0.7-1.6-1.1-3-1.4-4.1c-0.3,1.3-0.7,2.5-1.1,3.8L256.2,130.6
			L256.2,130.6z M250.5,138.7l7.7-19.8l2.8,0l8.1,19.8l-3-0.1l-2.3-6h-8.3l-2.2,6"/>
		<path id="path7595" class="st17" d="M276.5,117.7c0-1,0.3-1.7,0.8-2.3c0.5-0.6,1.2-0.8,2-0.8c0.6,0,1.4,0.2,2.3,0.7
			c0.5,0.2,0.9,0.4,1.2,0.4c0.3,0,0.6,0,0.7-0.2c0.1-0.2,0.3-0.5,0.3-1l1.8,0c0,1.1-0.3,1.8-0.8,2.3c-0.5,0.5-1.1,0.7-1.9,0.8
			c-0.5,0-1.3-0.3-2.2-0.7c-0.6-0.4-1-0.5-1.4-0.5c-0.3-0.1-0.5,0.1-0.7,0.3c-0.2,0.3-0.3,0.6-0.3,1L276.5,117.7L276.5,117.7z
			 M272.7,138.8l0-19.8l2.7,0l10.4,15.5l0.1-15.6l2.5,0l0,19.8l-2.7,0l-10.4-15.6l-0.1,15.6"/>
		<path id="path7597" class="st17" d="M298,130.6l6.7,0l-2-5.5c-0.7-1.7-1.2-3.1-1.5-4.1c-0.2,1.2-0.5,2.5-1,3.8L298,130.6
			L298,130.6z M292.2,138.8l7.6-19.8l2.8,0l8.1,19.9l-3.1-0.1l-2.2-6l-8.3-0.1l-2.2,6.1"/>
		<path id="path7599" class="st18" d="M192.5,74.3c-0.4,0-0.8,0-1.3,0c-15.2,0.1-27.5-12.2-27.6-27.4c-0.1-15.2,12.2-27.5,27.4-27.6
			c15.2-0.1,27.5,12.2,27.6,27.4c0,12.3-8,22.7-19,26.2c0-0.4-0.1-3.9,0.4-5c8.3-3.5,14.2-11.7,14.1-21.3c0-12.7-10.4-22.9-23-22.8
			c-12.7,0-22.9,10.3-22.8,23c0,12.7,10.3,22.9,23,22.8c0.4,0,0.8,0,1.2-0.1C192.3,71.2,192.2,73.4,192.5,74.3"/>
		<path id="path7601" class="st16" d="M252,69.6c-0.4,0-0.8,0.1-1.2,0.1c-10.9,0-20.1-7.6-22.4-17.8c-1.6-0.7-4-1.1-4.8-1.1
			c1.9,13.3,13.4,23.5,27.3,23.5c0.4,0,0.8,0,1.2,0C251.8,71.7,252,70.4,252,69.6 M250.6,19.2c-14,0.1-25.6,10.6-27.2,24.2
			c0.9,0,4,0.6,4.5,0.7c1.2-11.4,10.9-20.4,22.7-20.4c12.7,0,23,10.2,23,22.8c0,9.6-5.8,17.8-14.2,21.3c-0.2,1.1-0.4,2.4-0.3,5
			c11.1-3.6,19.1-14,19-26.2C278.1,31.4,265.8,19.2,250.6,19.2"/>
		<path id="path7603" class="st19" d="M288,51.6c2.3,10.2,11.5,17.9,22.4,17.8c12.7,0,22.9-10.3,22.8-23c0-12.7-10.3-22.9-23-22.8
			c-11.8,0-21.5,9-22.7,20.4c-0.8-0.3-3.5-0.8-4.5-0.8c1.6-13.6,13.1-24.2,27.2-24.2c15.2-0.1,27.5,12.2,27.6,27.4
			c0.1,15.2-12.2,27.5-27.4,27.6c-13.9,0.1-25.4-10.2-27.3-23.5C284,50.4,286.3,50.9,288,51.6"/>
		<path id="path7605" class="st20" d="M243.8,74.5c-1.3,11.4-10.9,20.4-22.7,20.4c-12.7,0-22.9-10.2-23-22.8
			c0-9.6,5.8-17.8,14.2-21.3c0.3-1.9,0.4-3.8,0.4-5c-11.1,3.6-19.1,14-19.1,26.3c0.1,15.2,12.4,27.4,27.6,27.3
			c14-0.1,25.6-10.6,27.2-24.2C247.3,75.2,244.9,74.9,243.8,74.5 M220.9,49.1c10.9,0,20.1,7.6,22.4,17.8c1.1,0.5,3.9,1.2,4.8,1.2
			c-1.9-13.4-13.4-23.6-27.3-23.5c-0.4,0-0.8,0-1.2,0c0.1,1,0.2,3.4,0,4.5C220.1,49.1,220.5,49.1,220.9,49.1"/>
		<path id="path7607" class="st21" d="M279.3,48.9c0.4,0,0.8,0,1.2,0c10.9,0,20.1,7.6,22.4,17.8c1,0.4,3.4,1,4.8,1.2
			c-1.9-13.4-13.4-23.6-27.3-23.5c-0.4,0-0.8,0-1.2,0C279.4,45.5,279.4,47.7,279.3,48.9L279.3,48.9L279.3,48.9z M303.4,74.3
			c-1.3,11.4-10.9,20.4-22.7,20.4c-12.7,0-23-10.2-23-22.8c0-9.6,5.9-17.8,14.2-21.3c0.3-0.8,0.5-3.7,0.3-5
			c-11.1,3.6-19.1,14-19,26.3c0.1,15.2,12.4,27.4,27.6,27.3c14-0.1,25.6-10.6,27.1-24.2C306.4,75,304,74.5,303.4,74.3"/>
	</g>
</g>
</svg>
